<?xml version="1.0" encoding="UTF-8" standalone="no"?>
<svg
   width="22"
   height="21"
   viewBox="0 0 22 21"
   fill="none"
   version="1.1"
   id="svg1"
   sodipodi:docname="Card-Like.svg"
   inkscape:export-filename="../Bureau/openclassrooms/oc-ohmyfood/res/img/svg/like.svg"
   inkscape:export-xdpi="96"
   inkscape:export-ydpi="96"
   xmlns:inkscape="http://www.inkscape.org/namespaces/inkscape"
   xmlns:sodipodi="http://sodipodi.sourceforge.net/DTD/sodipodi-0.dtd"
   xmlns="http://www.w3.org/2000/svg"
   xmlns:svg="http://www.w3.org/2000/svg">
  <defs
     id="defs1" />
  <sodipodi:namedview
     id="namedview1"
     pagecolor="#ffffff"
     bordercolor="#000000"
     borderopacity="0.25"
     inkscape:showpageshadow="2"
     inkscape:pageopacity="0.0"
     inkscape:pagecheckerboard="0"
     inkscape:deskcolor="#d1d1d1" />
  <path
     d="M 5.9396168,0.98156181 C 5.7836922,0.98358996 5.6278055,0.99517825 5.4729907,1.013166 5.3181759,1.0311537 5.1646001,1.0571306 5.0119417,1.0912468 4.8592834,1.1253631 4.7077843,1.1672497 4.5583292,1.2176635 4.4088738,1.2680773 4.2610765,1.3255356 4.1158708,1.3924159 3.9706653,1.4592962 3.8281944,1.5357064 3.6882852,1.6192223 3.5483759,1.7027379 3.4109973,1.7940442 3.2774312,1.8943644 3.1438649,1.9946843 3.0132033,2.1042669 2.8870268,2.2215603 2.8128375,2.2906425 2.741182,2.3610263 2.6713749,2.433494 2.6015676,2.5059619 2.5341605,2.5790761 2.4687364,2.6547232 2.4033124,2.7303702 2.3401512,2.8084865 2.2791115,2.8871067 2.2180717,2.9657269 2.1591542,3.0455395 2.1025,3.1269266 2.0458459,3.2083137 1.9911695,3.2902348 1.938902,3.3741827 1.8866346,3.4581303 1.8361971,3.5444318 1.7883174,3.630734 1.7404379,3.7170361 1.6942369,3.8044122 1.6507465,3.8928626 1.607256,3.981313 1.5671481,4.070176 1.5280479,4.1605685 1.4889477,4.2509608 1.4512125,4.3435824 1.4165039,4.4357105 1.3817951,4.5278387 1.3501484,4.619054 1.3198322,4.7127117 1.2592,4.9000272 1.2067252,5.0912493 1.1636706,5.2834456 1.1206159,5.4756419 1.0868894,5.6699065 1.0614218,5.865334 1.0359542,6.0607613 1.019098,6.2576499 1.011227,6.4546587 c -0.00787,0.1970086 -0.00788,0.3942434 0.00186,0.5911836 0.00973,0.1969402 0.028422,0.3922436 0.055772,0.5874655 0.02735,0.195222 0.06471,0.3900345 0.1096851,0.5818884 0.044975,0.1918539 0.09727,0.3820388 0.1598798,0.5688749 0.031305,0.093418 0.064674,0.1851469 0.1003897,0.2770012 0.035716,0.091854 0.075135,0.1831987 0.1152622,0.273283 0.040126,0.090084 0.081877,0.1795978 0.1264166,0.2677057 0.044539,0.088108 0.090477,0.174344 0.1394301,0.2602696 0.048953,0.085926 0.1009343,0.1711554 0.1543027,0.2546924 0.053369,0.08354 0.1095314,0.166314 0.1673162,0.247256 0.057784,0.08095 0.1162683,0.15982 0.1784705,0.237961 0.062202,0.07814 0.1267223,0.155391 0.1933431,0.230524 l 7.914055,8.914232 c 0.04023,0.04528 0.08326,0.08502 0.128275,0.118981 0.04502,0.03396 0.09285,0.06288 0.141289,0.08552 0.04844,0.02264 0.09822,0.03888 0.148726,0.05019 0.0505,0.01131 0.101255,0.01673 0.152443,0.01673 0.05119,0 0.101939,-0.0055 0.152443,-0.01673 0.0505,-0.01131 0.100273,-0.02756 0.148726,-0.05019 0.04844,-0.02265 0.09626,-0.05155 0.14129,-0.08552 0.04503,-0.03396 0.08803,-0.0737 0.128275,-0.118981 l 7.914052,-8.914232 c 0.06674,-0.07513 0.131034,-0.152386 0.193343,-0.230524 0.0623,-0.07814 0.122445,-0.157022 0.18033,-0.237961 0.05788,-0.08094 0.113854,-0.163722 0.167318,-0.247256 0.05346,-0.08354 0.10526,-0.1687707 0.154302,-0.2546924 0.04904,-0.085922 0.09482,-0.1721658 0.13943,-0.2602696 0.04462,-0.088104 0.08807,-0.1776261 0.128275,-0.2677057 0.04021,-0.090079 0.07761,-0.1814336 0.113404,-0.273283 0.03579,-0.09185 0.06902,-0.1835882 0.100389,-0.2770012 0.03137,-0.093413 0.06042,-0.187808 0.08738,-0.2825784 0.02696,-0.094771 0.05182,-0.1903749 0.07437,-0.2862965 0.04509,-0.1918432 0.08224,-0.3866775 0.109685,-0.5818884 0.02744,-0.1952108 0.04597,-0.3905366 0.05577,-0.5874655 0.0098,-0.1969289 0.0096,-0.3941862 0.0019,-0.5911836 C 20.981077,6.2576611 20.965952,6.0607506 20.940535,5.865334 20.915018,5.6699174 20.879348,5.4756318 20.83633,5.2834456 20.793312,5.0912595 20.742632,4.900018 20.682028,4.7127117 20.651725,4.6190585 20.618194,4.5278344 20.583496,4.4357105 20.5488,4.3435866 20.512903,4.2509568 20.473812,4.1605685 20.434722,4.07018 20.392737,3.9813093 20.349254,3.8928626 20.305772,3.8044159 20.259556,3.7170329 20.211683,3.630734 20.16381,3.5444351 20.11522,3.4599865 20.062958,3.3760416 20.010696,3.2920968 19.95601,3.2083111 19.89936,3.1269266 19.84271,3.0455419 19.783785,2.965725 19.722748,2.8871067 19.661712,2.8084885 19.598545,2.7303688 19.533123,2.6547232 19.467703,2.5790776 19.40029,2.505961 19.330485,2.433494 19.260681,2.3610272 19.18902,2.2906422 19.114834,2.2215603 h -0.0019 c -0.004,-0.00308 -0.0071,-0.00623 -0.01116,-0.0093 C 18.953796,2.0986898 18.808935,1.9923594 18.668657,1.8962233 18.524195,1.7972202 18.383206,1.7082129 18.246648,1.6266585 18.11009,1.545104 17.977777,1.4705966 17.848808,1.4054293 17.719838,1.340262 17.594972,1.2842366 17.473276,1.2343951 17.438201,1.2200319 17.405505,1.2103609 17.371027,1.1972137 17.245061,1.1570671 17.118084,1.119904 16.989919,1.0912468 16.837345,1.057132 16.683602,1.0311532 16.52887,1.013166 16.374137,0.9951787 16.219954,0.98358979 16.064102,0.98156184 c -0.0903,-0.001174 -0.181025,0.007016 -0.271424,0.0111545 -0.06562,0.003004 -0.131477,0.001648 -0.197061,0.007437 -0.155929,0.013763 -0.31166,0.035681 -0.466626,0.065067 -0.154966,0.029387 -0.309945,0.066703 -0.462907,0.1115441 -0.152963,0.044841 -0.303696,0.096033 -0.453614,0.1561612 -0.149918,0.060128 -0.298483,0.1292504 -0.444318,0.2044975 -0.145832,0.075247 -0.288736,0.1570583 -0.429444,0.2472561 -0.140707,0.090198 -0.28003,0.1887523 -0.414572,0.2937326 C 12.789594,2.1833922 12.659208,2.2953084 12.531872,2.4149032 12.404538,2.534498 12.281005,2.661971 12.161918,2.7960121 L 11.356942,3.7013786 11,4.1010783 10.644918,3.7013786 9.8399419,2.7960123 9.8380828,2.7941533 C 9.7192692,2.6601494 9.5971109,2.5344686 9.4699873,2.4149034 9.3428637,2.2953382 9.2121108,2.1833694 9.0777239,2.078412 8.9433369,1.9734546 8.8056145,1.87486 8.6650108,1.7846793 8.5244071,1.6944985 8.3794807,1.6126582 8.2337069,1.5374232 8.0879331,1.4621882 7.9411459,1.393046 7.7912487,1.3329257 7.6413515,1.2728054 7.488751,1.2216006 7.335777,1.176764 7.182803,1.1319273 7.0297323,1.0946039 6.874728,1.0652199 6.719724,1.0358358 6.5622306,1.0139149 6.4062429,1.0001525 6.2502553,0.98639006 6.0955413,0.97953364 5.9396168,0.98156181 Z"
     style="stroke:#101010;stroke-width:0.951843"
     id="path3" />
  <path
     id="path2"
     d="M 5.6835938,0.5 C 4.5368937,0.51491549 3.4044903,0.94013443 2.4765625,1.8027344 -0.01761891,4.1252221 -0.15575339,8.3236819 2.0839844,10.849609 l 8.3144536,9.365235 c 0.338099,0.380599 0.861019,0.380599 1.199218,0 l 8.314453,-9.365235 C 22.155707,8.3237619 22.019488,4.1252121 19.525391,1.8027344 18.236799,3.721887 17.21952,4.8001167 16.387476,5.3042806 14.27335,6.5853017 13.963672,1.4456741 12.220703,2.40625 L 11.375,3.3574219 11,3.7773438 10.626953,3.3574219 9.78125,2.40625 9.7792969,2.4042969 C 8.6558674,1.137236 7.1579224,0.48082294 5.6835938,0.5 Z M 12.220703,2.40625 19.523438,1.8027344 C 17.40264,-0.16858565 14.222501,0.15307225 12.220703,2.40625 Z"
     sodipodi:nodetypes="sccccccsccccccsccc" />
</svg>
